<!-- icon666.com - MILLIONS vector ICONS FREE --><svg id="Layer_1" enable-background="new 0 0 512 512" viewBox="0 0 512 512" xmlns="http://www.w3.org/2000/svg" xmlns:xlink="http://www.w3.org/1999/xlink"><linearGradient id="SVGID_1_" gradientUnits="userSpaceOnUse" x1="75.066" x2="436.934" y1="436.934" y2="75.066"><stop offset="0" stop-color="#ffe400"></stop><stop offset="1" stop-color="#eb5529"></stop></linearGradient><path d="m256 .001c-141.158 0-255.999 114.841-255.999 255.999s114.841 255.999 255.999 255.999 255.999-114.841 255.999-255.999-114.841-255.999-255.999-255.999zm0 479.998c-123.513 0-223.999-100.485-223.999-223.999s100.486-223.999 223.999-223.999 223.999 100.485 223.999 223.999-100.486 223.999-223.999 223.999zm141-223.999c0 8.837-7.164 16-16 16h-250c-8.836 0-16-7.163-16-16s7.164-16 16-16h250c8.836 0 16 7.163 16 16zm0-99c0 8.837-7.164 16-16 16h-250c-8.836 0-16-7.163-16-16s7.164-16 16-16h250c8.836 0 16 7.163 16 16zm0 198c0 8.837-7.164 16-16 16h-250c-8.836 0-16-7.163-16-16s7.164-16 16-16h250c8.836 0 16 7.163 16 16z" fill="url(#SVGID_1_)"></path></svg>